<svg xmlns="http://www.w3.org/2000/svg" xmlns:xlink="http://www.w3.org/1999/xlink" width="500" zoomAndPan="magnify" viewBox="0 0 375 374.999991" height="500" preserveAspectRatio="xMidYMid meet" version="1.0"><defs><g/></defs><g fill="#ffffff" fill-opacity="1"><g transform="translate(224.495685, 103.130538)"><g><path d="M 36.046875 6.765625 C 42.921875 6.765625 49.066406 8.34375 54.484375 11.5 C 59.898438 14.664062 64.1875 19.125 67.34375 24.875 C 70.5 30.625 72.078125 37.335938 72.078125 45.015625 L 72.078125 122.84375 C 72.078125 130.507812 70.5 137.21875 67.34375 142.96875 C 64.1875 148.726562 59.898438 153.1875 54.484375 156.34375 C 49.066406 159.5 42.921875 161.078125 36.046875 161.078125 L 0 161.078125 L 0 132.828125 L 36.046875 132.828125 C 38.972656 132.828125 41.421875 131.835938 43.390625 129.859375 C 45.367188 127.890625 46.359375 125.550781 46.359375 122.84375 L 46.359375 45.015625 C 46.359375 42.304688 45.367188 39.960938 43.390625 37.984375 C 41.421875 36.015625 38.972656 35.03125 36.046875 35.03125 L 0 35.03125 L 0 6.765625 Z M 36.046875 6.765625 "/></g></g></g><g fill="#ffffff" fill-opacity="1"><g transform="translate(224.495685, 244.445562)"><g/></g></g><g fill="#ffffff" fill-opacity="1"><g transform="translate(150.500228, 271.867677)"><g><path d="M -36.046875 -6.765625 C -42.921875 -6.765625 -49.066406 -8.34375 -54.484375 -11.5 C -59.898438 -14.664062 -64.1875 -19.125 -67.34375 -24.875 C -70.5 -30.625 -72.078125 -37.335938 -72.078125 -45.015625 L -72.078125 -122.84375 C -72.078125 -130.507812 -70.5 -137.21875 -67.34375 -142.96875 C -64.1875 -148.726562 -59.898438 -153.1875 -54.484375 -156.34375 C -49.066406 -159.5 -42.921875 -161.078125 -36.046875 -161.078125 L 0 -161.078125 L 0 -132.828125 L -36.046875 -132.828125 C -38.972656 -132.828125 -41.421875 -131.835938 -43.390625 -129.859375 C -45.367188 -127.890625 -46.359375 -125.550781 -46.359375 -122.84375 L -46.359375 -45.015625 C -46.359375 -42.304688 -45.367188 -39.960938 -43.390625 -37.984375 C -41.421875 -36.015625 -38.972656 -35.03125 -36.046875 -35.03125 L 0 -35.03125 L 0 -6.765625 Z M -36.046875 -6.765625 "/></g></g></g><g fill="#ffffff" fill-opacity="1"><g transform="translate(150.500228, 130.552654)"><g/></g></g><g fill="#ffffff" fill-opacity="1"><g transform="translate(136.303955, 199.304598)"><g><path d="M 1.78125 0 L 1.78125 -6.75 L 32.265625 -6.75 C 32.984375 -6.75 33.597656 -7.007812 34.109375 -7.53125 C 34.628906 -8.050781 34.890625 -8.695312 34.890625 -9.46875 L 34.890625 -24.359375 L 15.296875 -24.359375 L 15.296875 -31.125 L 42.3125 -31.125 L 42.3125 -9.109375 C 42.3125 -7.453125 41.894531 -5.925781 41.0625 -4.53125 C 40.238281 -3.132812 39.070312 -2.03125 37.5625 -1.21875 C 36.050781 -0.40625 34.285156 0 32.265625 0 Z M 1.78125 0 "/></g></g></g><g fill="#ffffff" fill-opacity="1"><g transform="translate(180.395766, 199.304598)"><g><path d="M 3.375 -21.65625 C 3.550781 -23.457031 4.039062 -25.066406 4.84375 -26.484375 C 5.644531 -27.910156 6.765625 -29.039062 8.203125 -29.875 C 9.640625 -30.707031 11.363281 -31.125 13.375 -31.125 L 29.828125 -31.125 C 31.835938 -31.125 33.5625 -30.707031 35 -29.875 C 36.4375 -29.039062 37.5625 -27.910156 38.375 -26.484375 C 39.195312 -25.066406 39.679688 -23.457031 39.828125 -21.65625 L 41.875 0 L 34.453125 0 L 33.296875 -12.21875 L 9.90625 -12.21875 L 8.75 0 L 1.328125 0 Z M 10.53125 -18.984375 L 32.671875 -18.984375 L 32.40625 -21.65625 C 32.34375 -22.414062 32.070312 -23.054688 31.59375 -23.578125 C 31.125 -24.097656 30.535156 -24.359375 29.828125 -24.359375 L 13.375 -24.359375 C 12.664062 -24.359375 12.070312 -24.097656 11.59375 -23.578125 C 11.125 -23.054688 10.859375 -22.414062 10.796875 -21.65625 Z M 10.53125 -18.984375 "/></g></g></g></svg>