<svg xmlns="http://www.w3.org/2000/svg" xmlns:xlink="http://www.w3.org/1999/xlink" width="500" zoomAndPan="magnify" viewBox="0 0 375 374.999991" height="500" preserveAspectRatio="xMidYMid meet" version="1.0"><defs><g/><clipPath id="95d8154c4e"><path d="M 223.007812 152.957031 L 296.273438 152.957031 L 296.273438 226.222656 L 223.007812 226.222656 Z M 223.007812 152.957031 " clip-rule="nonzero"/></clipPath><clipPath id="86d9fa0097"><path d="M 259.640625 152.957031 C 239.410156 152.957031 223.007812 169.359375 223.007812 189.589844 C 223.007812 209.820312 239.410156 226.222656 259.640625 226.222656 C 279.871094 226.222656 296.273438 209.820312 296.273438 189.589844 C 296.273438 169.359375 279.871094 152.957031 259.640625 152.957031 Z M 259.640625 152.957031 " clip-rule="nonzero"/></clipPath></defs><g clip-path="url(#95d8154c4e)"><g clip-path="url(#86d9fa0097)"><path fill="#ffffff" d="M 223.007812 152.957031 L 296.273438 152.957031 L 296.273438 226.222656 L 223.007812 226.222656 Z M 223.007812 152.957031 " fill-opacity="1" fill-rule="nonzero"/></g></g><g fill="#000000" fill-opacity="1"><g transform="translate(133.248598, 206.815296)"><g><path d="M 8.59375 -37.484375 C 6.988281 -37.484375 5.609375 -37.957031 4.453125 -38.90625 C 3.296875 -39.851562 2.71875 -41.15625 2.71875 -42.8125 C 2.71875 -44.457031 3.296875 -45.765625 4.453125 -46.734375 C 5.609375 -47.703125 6.988281 -48.1875 8.59375 -48.1875 C 10.207031 -48.1875 11.585938 -47.703125 12.734375 -46.734375 C 13.890625 -45.765625 14.46875 -44.457031 14.46875 -42.8125 C 14.46875 -41.15625 13.890625 -39.851562 12.734375 -38.90625 C 11.585938 -37.957031 10.207031 -37.484375 8.59375 -37.484375 Z M 5.75 12.125 L -2.046875 12.125 L -2.046875 3.65625 L 1.171875 3.65625 C 1.671875 3.65625 2.164062 3.53125 2.65625 3.28125 C 3.15625 3.03125 3.40625 2.429688 3.40625 1.484375 L 3.40625 -35.078125 L 13.796875 -35.078125 L 13.796875 5.078125 C 13.796875 7.296875 13.09375 9.023438 11.6875 10.265625 C 10.289062 11.503906 8.3125 12.125 5.75 12.125 Z M 5.75 12.125 "/></g></g></g><g fill="#000000" fill-opacity="1"><g transform="translate(150.444253, 206.815296)"><g><path d="M 13.546875 0.75 C 11.441406 0.75 9.523438 0.359375 7.796875 -0.421875 C 6.066406 -1.210938 4.675781 -2.390625 3.625 -3.953125 C 2.570312 -5.523438 2.046875 -7.484375 2.046875 -9.828125 C 2.046875 -11.929688 2.457031 -13.664062 3.28125 -15.03125 C 4.101562 -16.394531 5.15625 -17.488281 6.4375 -18.3125 C 7.675781 -19.132812 9.035156 -19.738281 10.515625 -20.125 C 12.003906 -20.519531 13.40625 -20.84375 14.71875 -21.09375 L 23.8125 -22.703125 C 23.6875 -24.472656 23.210938 -25.832031 22.390625 -26.78125 C 21.609375 -27.601562 20.429688 -28.015625 18.859375 -28.015625 C 17.671875 -28.015625 16.570312 -27.613281 15.5625 -26.8125 C 14.550781 -26.007812 13.921875 -24.867188 13.671875 -23.390625 L 3.34375 -23.390625 C 3.789062 -26.316406 4.796875 -28.695312 6.359375 -30.53125 C 7.929688 -32.363281 9.832031 -33.703125 12.0625 -34.546875 C 14.289062 -35.390625 16.578125 -35.8125 18.921875 -35.8125 C 20.984375 -35.8125 22.960938 -35.53125 24.859375 -34.96875 C 26.765625 -34.414062 28.414062 -33.546875 29.8125 -32.359375 C 31.257812 -31.117188 32.28125 -29.691406 32.875 -28.078125 C 33.476562 -26.472656 33.835938 -24.710938 33.953125 -22.796875 C 34.078125 -20.878906 34.140625 -18.828125 34.140625 -16.640625 L 34.140625 0 L 23.75 0 L 23.75 -4.265625 C 23.175781 -2.910156 22.351562 -1.859375 21.28125 -1.109375 C 20.25 -0.410156 19.0625 0.0703125 17.71875 0.34375 C 16.382812 0.613281 14.992188 0.75 13.546875 0.75 Z M 16.578125 -7.109375 C 17.816406 -7.109375 19.078125 -7.398438 20.359375 -7.984375 C 21.796875 -8.640625 22.75 -9.554688 23.21875 -10.734375 C 23.695312 -11.910156 23.957031 -13.445312 24 -15.34375 L 17.625 -14.109375 C 16.46875 -13.898438 15.582031 -13.671875 14.96875 -13.421875 C 14.351562 -13.171875 13.816406 -12.84375 13.359375 -12.4375 C 13.066406 -12.144531 12.835938 -11.820312 12.671875 -11.46875 C 12.515625 -11.125 12.4375 -10.703125 12.4375 -10.203125 C 12.4375 -9.085938 12.847656 -8.289062 13.671875 -7.8125 C 14.492188 -7.34375 15.460938 -7.109375 16.578125 -7.109375 Z M 16.578125 -7.109375 "/></g></g></g><g fill="#000000" fill-opacity="1"><g transform="translate(187.619036, 206.815296)"><g><path d="M 22.515625 0 L 14.234375 0 C 11.671875 0 9.675781 -0.609375 8.25 -1.828125 C 6.832031 -3.046875 6.125 -4.765625 6.125 -6.984375 L 6.125 -26.96875 L 1.296875 -26.96875 L 1.296875 -35.078125 L 6.125 -35.078125 L 6.125 -47.203125 L 16.515625 -47.203125 L 16.515625 -35.078125 L 22.578125 -35.078125 L 22.578125 -26.96875 L 16.515625 -26.96875 L 16.515625 -10.515625 C 16.515625 -10.023438 16.640625 -9.550781 16.890625 -9.09375 C 17.140625 -8.632812 17.71875 -8.40625 18.625 -8.40625 L 22.515625 -8.40625 Z M 22.515625 0 "/></g></g></g><g fill="#000000" fill-opacity="1"><g transform="translate(212.23728, 206.815296)"><g><path d="M 22.515625 0 L 14.234375 0 C 11.671875 0 9.675781 -0.609375 8.25 -1.828125 C 6.832031 -3.046875 6.125 -4.765625 6.125 -6.984375 L 6.125 -26.96875 L 1.296875 -26.96875 L 1.296875 -35.078125 L 6.125 -35.078125 L 6.125 -47.203125 L 16.515625 -47.203125 L 16.515625 -35.078125 L 22.578125 -35.078125 L 22.578125 -26.96875 L 16.515625 -26.96875 L 16.515625 -10.515625 C 16.515625 -10.023438 16.640625 -9.550781 16.890625 -9.09375 C 17.140625 -8.632812 17.71875 -8.40625 18.625 -8.40625 L 22.515625 -8.40625 Z M 22.515625 0 "/></g></g></g><g fill="#000000" fill-opacity="1"><g transform="translate(236.855524, 206.815296)"><g><path d="M 20.40625 0.75 C 16.78125 0.75 13.578125 -0.0078125 10.796875 -1.53125 C 8.015625 -3.0625 5.847656 -5.21875 4.296875 -8 C 2.753906 -10.789062 1.984375 -14.039062 1.984375 -17.75 C 1.984375 -21.34375 2.753906 -24.488281 4.296875 -27.1875 C 5.847656 -29.882812 8.003906 -31.992188 10.765625 -33.515625 C 13.523438 -35.046875 16.738281 -35.8125 20.40625 -35.8125 C 24.082031 -35.8125 27.300781 -35.046875 30.0625 -33.515625 C 32.820312 -31.992188 34.972656 -29.882812 36.515625 -27.1875 C 38.066406 -24.488281 38.84375 -21.34375 38.84375 -17.75 C 38.84375 -14.039062 38.078125 -10.800781 36.546875 -8.03125 C 35.023438 -5.269531 32.882812 -3.113281 30.125 -1.5625 C 27.363281 -0.0195312 24.125 0.75 20.40625 0.75 Z M 20.40625 -8.171875 C 22.757812 -8.171875 24.613281 -9.046875 25.96875 -10.796875 C 27.332031 -12.546875 28.015625 -14.863281 28.015625 -17.75 C 28.015625 -20.476562 27.332031 -22.695312 25.96875 -24.40625 C 24.613281 -26.113281 22.757812 -26.96875 20.40625 -26.96875 C 18.101562 -26.96875 16.238281 -26.117188 14.8125 -24.421875 C 13.394531 -22.734375 12.6875 -20.507812 12.6875 -17.75 C 12.6875 -14.820312 13.394531 -12.492188 14.8125 -10.765625 C 16.238281 -9.035156 18.101562 -8.171875 20.40625 -8.171875 Z M 20.40625 -8.171875 "/></g></g></g><g fill="#000000" fill-opacity="1"><g transform="translate(288.03997, 205.633336)"><g><path d="M 0.125 -2.640625 C 0.125 -2.003906 -0.0390625 -1.488281 -0.375 -1.09375 C -0.707031 -0.695312 -1.171875 -0.5 -1.765625 -0.5 C -2.078125 -0.5 -2.347656 -0.5625 -2.578125 -0.6875 C -2.816406 -0.8125 -3.019531 -0.984375 -3.1875 -1.203125 C -3.320312 -1.398438 -3.4375 -1.625 -3.53125 -1.875 C -3.625 -2.132812 -3.695312 -2.414062 -3.75 -2.71875 L -4.171875 -4.84375 C -4.617188 -4.832031 -4.960938 -4.710938 -5.203125 -4.484375 C -5.460938 -4.222656 -5.59375 -3.878906 -5.59375 -3.453125 C -5.59375 -3.097656 -5.492188 -2.789062 -5.296875 -2.53125 C -5.109375 -2.269531 -4.84375 -2.101562 -4.5 -2.03125 L -4.5 -0.765625 C -4.976562 -0.835938 -5.375 -1.003906 -5.6875 -1.265625 C -6.007812 -1.535156 -6.25 -1.863281 -6.40625 -2.25 C -6.5625 -2.632812 -6.640625 -3.039062 -6.640625 -3.46875 C -6.640625 -3.84375 -6.582031 -4.195312 -6.46875 -4.53125 C -6.363281 -4.875 -6.203125 -5.164062 -5.984375 -5.40625 C -5.765625 -5.644531 -5.507812 -5.8125 -5.21875 -5.90625 C -4.9375 -6.007812 -4.65625 -6.070312 -4.375 -6.09375 C -4.09375 -6.113281 -3.835938 -6.125 -3.609375 -6.125 L 0 -6.125 L 0 -4.828125 L -0.953125 -4.828125 C -0.796875 -4.734375 -0.660156 -4.628906 -0.546875 -4.515625 C -0.429688 -4.410156 -0.332031 -4.289062 -0.25 -4.15625 C -0.113281 -3.945312 -0.0195312 -3.710938 0.03125 -3.453125 C 0.09375 -3.203125 0.125 -2.929688 0.125 -2.640625 Z M -0.9375 -2.890625 C -0.9375 -3.234375 -1.003906 -3.546875 -1.140625 -3.828125 C -1.347656 -4.234375 -1.617188 -4.503906 -1.953125 -4.640625 C -2.285156 -4.785156 -2.695312 -4.859375 -3.1875 -4.859375 L -2.828125 -3.015625 C -2.734375 -2.566406 -2.59375 -2.238281 -2.40625 -2.03125 C -2.238281 -1.875 -2.035156 -1.796875 -1.796875 -1.796875 C -1.523438 -1.796875 -1.3125 -1.894531 -1.15625 -2.09375 C -1.007812 -2.300781 -0.9375 -2.566406 -0.9375 -2.890625 Z M -0.9375 -2.890625 "/></g></g></g><g fill="#000000" fill-opacity="1"><g transform="translate(288.03997, 198.800983)"><g><path d="M 0.125 -4.0625 C 0.125 -3.644531 0.0507812 -3.28125 -0.09375 -2.96875 C -0.25 -2.664062 -0.523438 -2.367188 -0.921875 -2.078125 L 0 -2.078125 L 0 -0.78125 L -8.921875 -0.78125 L -8.921875 -2.078125 L -5.609375 -2.078125 C -6.015625 -2.367188 -6.285156 -2.671875 -6.421875 -2.984375 C -6.566406 -3.296875 -6.640625 -3.65625 -6.640625 -4.0625 C -6.640625 -4.632812 -6.492188 -5.132812 -6.203125 -5.5625 C -5.921875 -6 -5.523438 -6.335938 -5.015625 -6.578125 C -4.515625 -6.816406 -3.925781 -6.9375 -3.25 -6.9375 C -2.59375 -6.9375 -2.007812 -6.816406 -1.5 -6.578125 C -0.988281 -6.335938 -0.585938 -6 -0.296875 -5.5625 C -0.015625 -5.132812 0.125 -4.632812 0.125 -4.0625 Z M -1 -3.828125 C -1 -4.203125 -1.09375 -4.523438 -1.28125 -4.796875 C -1.476562 -5.066406 -1.75 -5.273438 -2.09375 -5.421875 C -2.4375 -5.578125 -2.820312 -5.65625 -3.25 -5.65625 C -3.6875 -5.65625 -4.078125 -5.578125 -4.421875 -5.421875 C -4.765625 -5.273438 -5.035156 -5.066406 -5.234375 -4.796875 C -5.429688 -4.523438 -5.53125 -4.203125 -5.53125 -3.828125 C -5.53125 -3.460938 -5.429688 -3.140625 -5.234375 -2.859375 C -5.046875 -2.578125 -4.78125 -2.351562 -4.4375 -2.1875 C -4.09375 -2.03125 -3.695312 -1.953125 -3.25 -1.953125 C -2.8125 -1.953125 -2.421875 -2.03125 -2.078125 -2.1875 C -1.734375 -2.351562 -1.46875 -2.578125 -1.28125 -2.859375 C -1.09375 -3.140625 -1 -3.460938 -1 -3.828125 Z M -1 -3.828125 "/></g></g></g><g fill="#000000" fill-opacity="1"><g transform="translate(288.03997, 191.325172)"><g><path d="M 0.125 -3.421875 C 0.125 -2.835938 -0.015625 -2.328125 -0.296875 -1.890625 C -0.585938 -1.460938 -0.988281 -1.128906 -1.5 -0.890625 C -2.007812 -0.648438 -2.59375 -0.53125 -3.25 -0.53125 C -3.925781 -0.53125 -4.515625 -0.648438 -5.015625 -0.890625 C -5.523438 -1.128906 -5.921875 -1.460938 -6.203125 -1.890625 C -6.492188 -2.328125 -6.640625 -2.835938 -6.640625 -3.421875 C -6.640625 -3.828125 -6.566406 -4.1875 -6.421875 -4.5 C -6.285156 -4.8125 -6.015625 -5.113281 -5.609375 -5.40625 L -8.921875 -5.40625 L -8.921875 -6.6875 L 0 -6.6875 L 0 -5.40625 L -0.921875 -5.40625 C -0.523438 -5.113281 -0.25 -4.8125 -0.09375 -4.5 C 0.0507812 -4.1875 0.125 -3.828125 0.125 -3.421875 Z M -1 -3.65625 C -1 -4.019531 -1.09375 -4.34375 -1.28125 -4.625 C -1.46875 -4.90625 -1.734375 -5.125 -2.078125 -5.28125 C -2.421875 -5.445312 -2.8125 -5.53125 -3.25 -5.53125 C -3.695312 -5.53125 -4.09375 -5.445312 -4.4375 -5.28125 C -4.78125 -5.125 -5.046875 -4.90625 -5.234375 -4.625 C -5.429688 -4.34375 -5.53125 -4.019531 -5.53125 -3.65625 C -5.53125 -3.28125 -5.429688 -2.953125 -5.234375 -2.671875 C -5.035156 -2.398438 -4.765625 -2.191406 -4.421875 -2.046875 C -4.078125 -1.898438 -3.6875 -1.828125 -3.25 -1.828125 C -2.820312 -1.828125 -2.4375 -1.898438 -2.09375 -2.046875 C -1.75 -2.191406 -1.476562 -2.398438 -1.28125 -2.671875 C -1.09375 -2.953125 -1 -3.28125 -1 -3.65625 Z M -1 -3.65625 "/></g></g></g><g fill="#000000" fill-opacity="1"><g transform="translate(288.03997, 183.849361)"><g><path d="M 0.125 -3 C 0.125 -2.050781 -0.226562 -1.394531 -0.9375 -1.03125 C -1.132812 -0.925781 -1.367188 -0.851562 -1.640625 -0.8125 C -1.910156 -0.769531 -2.257812 -0.75 -2.6875 -0.75 L -6.515625 -0.75 L -6.515625 -2.03125 L -2.671875 -2.03125 C -2.003906 -2.03125 -1.539062 -2.144531 -1.28125 -2.375 C -1.0625 -2.582031 -0.953125 -2.882812 -0.953125 -3.28125 C -0.953125 -3.75 -1.101562 -4.113281 -1.40625 -4.375 C -1.59375 -4.550781 -1.84375 -4.675781 -2.15625 -4.75 C -2.476562 -4.832031 -2.914062 -4.875 -3.46875 -4.875 L -6.515625 -4.875 L -6.515625 -6.15625 L 0 -6.15625 L 0 -4.875 L -0.921875 -4.875 C -0.554688 -4.59375 -0.289062 -4.304688 -0.125 -4.015625 C 0.0390625 -3.722656 0.125 -3.382812 0.125 -3 Z M 0.125 -3 "/></g></g></g><g fill="#000000" fill-opacity="1"><g transform="translate(288.03997, 176.923414)"><g><path d="M 0 -3.046875 L 0 -2.28125 C 0 -1.800781 -0.109375 -1.425781 -0.328125 -1.15625 C -0.554688 -0.882812 -0.957031 -0.75 -1.53125 -0.75 L -8.921875 -0.75 L -8.921875 -2.03125 L -1.84375 -2.03125 C -1.59375 -2.03125 -1.40625 -2.070312 -1.28125 -2.15625 C -1.15625 -2.238281 -1.09375 -2.414062 -1.09375 -2.6875 L -1.09375 -3.046875 Z M 0 -3.046875 "/></g></g></g></svg>